<svg xmlns="http://www.w3.org/2000/svg" viewBox="0 0 64 64" role="img" aria-label="APC MagicQ Bridge">
  <rect width="64" height="64" rx="12" fill="#101412"/>
  <rect x="6" y="6" width="52" height="52" rx="9" fill="#171d19" stroke="#2d372f" stroke-width="2"/>
  <g fill="#9ff0b7">
    <rect x="15" y="14" width="8" height="8" rx="2"/>
    <rect x="27" y="14" width="8" height="8" rx="2"/>
    <rect x="39" y="14" width="8" height="8" rx="2"/>
    <rect x="15" y="26" width="8" height="8" rx="2"/>
    <rect x="27" y="26" width="8" height="8" rx="2"/>
    <rect x="39" y="26" width="8" height="8" rx="2"/>
  </g>
  <rect x="15" y="38" width="8" height="8" rx="2" fill="#ffb8a8"/>
  <rect x="27" y="38" width="8" height="8" rx="2" fill="#d8ecd1"/>
  <rect x="39" y="38" width="8" height="8" rx="2" fill="#9ff0b7"/>
  <path d="M14 52 C21 46, 29 58, 36 52 S50 46, 54 52" fill="none" stroke="#00a9ff" stroke-width="3" stroke-linecap="round"/>
  <circle cx="14" cy="52" r="2.5" fill="#00a9ff"/>
  <circle cx="54" cy="52" r="2.5" fill="#00a9ff"/>
</svg>
